# xmcd
#
# Track frame offsets:
#	150
#	13580
#	23235
#	38662
#	49360
#	59755
#	71352
#	84485
#	95712
#	107127
#
# Disc length: 1592 seconds
#
# Revision: 0
# Processed by: cddbd v1.5.1PL0 Copyright (c) Steve Scherf et al.
# Submitted via: dBpowerAMP V4.0
#
DISCID=8406360a
DTITLE=Loretta Lynn - Best Of The Best (Her Gospel Side)
DYEAR=1999
DGENRE=Country/Gospel
TTITLE0=Standing Room Only
TTITLE1=Who Says God Is Dead?
TTITLE2=The Third Man
TTITLE3=Everybody Wants To Go To Heaven
TTITLE4=If I Could Hear My Mother Pray Again
TTITLE5=When I Hear My Children Pray
TTITLE6=Ten Thousand Angels
TTITLE7=He's Got The Whole World In His Hands
TTITLE8=Mama, Why?
TTITLE9=Where I Learned To Pray
EXTD=
EXTT0=
EXTT1=
EXTT2=
EXTT3=
EXTT4=
EXTT5=
EXTT6=
EXTT7=
EXTT8=
EXTT9=
PLAYORDER=
